<svg xmlns="http://www.w3.org/2000/svg" viewBox="0 0 89.85 30"><defs><style>.cls-1{fill:#fff;}</style></defs><title>glasses</title><g id="Layer_2" data-name="Layer 2"><g id="Layer_1-2" data-name="Layer 1"><path class="cls-1" d="M87.26,2.11A89.87,89.87,0,0,0,63.06.21c-1.7.1-10.2,1.6-12.5,2.1a22.54,22.54,0,0,1-5.4.5h-.1a23.64,23.64,0,0,1-5.6-.5c-2.3-.5-10.8-2-12.5-2.1a86.16,86.16,0,0,0-24.3,1.9c-3.3.6-2.6,2.2-2.6,2.2s.2,1.8.2,2.8.4,1.3,1.5,1.7S4,12.21,4,12.21c3.3,12.4,3.7,12.2,6.4,14.6,6.3,5.1,18,3,21.7.7,5.1-3.2,8-10,9-14.5,1.1-4.8,3.3-5,3.7-4.9H45c.5,0,2.6.1,3.7,4.9,1,4.5,3.9,11.3,9,14.5,3.7,2.3,15.4,4.5,21.7-.7,2.7-2.5,3.1-2.3,6.4-14.6,0,0,1.2-3,2.3-3.4s1.4-.7,1.5-1.7.2-2.8.2-2.8S90.56,2.61,87.26,2.11ZM4.66,6.41c-1.4,0-2.6-.4-2.6-.9s1.2-.9,2.6-.9,2.6.4,2.6.9S6.06,6.41,4.66,6.41Zm17.5,21.2C13.06,28,8.26,23,8,14.81c-.3-9.3.7-12.5,14.1-12.3,6.9.1,15.6,1.2,15.7,5.2C38,26.21,29.06,27.31,22.16,27.61ZM82,14.81c-.3,8.2-5.1,13.2-14.2,12.8-6.9-.3-15.8-1.4-15.5-19.9.1-4,8.8-5.1,15.7-5.2C81.26,2.31,82.36,5.51,82,14.81Zm3-8.4c-1.4,0-2.6-.4-2.6-.9s1.2-.9,2.6-.9,2.6.4,2.6.9S86.36,6.41,85,6.41Z"/></g></g></svg>